<mxfile host="app.diagrams.net" agent="Mozilla/5.0 (Windows NT 10.0; Win64; x64; rv:133.0) Gecko/20100101 Firefox/133.0" version="26.0.1">
  <diagram id="C5RBs43oDa-KdzZeNtuy" name="Page-1">
    <mxGraphModel grid="1" page="1" gridSize="10" guides="1" tooltips="1" connect="1" arrows="1" fold="1" pageScale="1" pageWidth="827" pageHeight="1169" math="0" shadow="0">
      <root>
        <mxCell id="WIyWlLk6GJQsqaUBKTNV-0" />
        <mxCell id="WIyWlLk6GJQsqaUBKTNV-1" parent="WIyWlLk6GJQsqaUBKTNV-0" />
        <mxCell id="eVLE40hb4WPYAKezZBtz-98" style="edgeStyle=orthogonalEdgeStyle;rounded=0;orthogonalLoop=1;jettySize=auto;html=1;entryX=0.25;entryY=0;entryDx=0;entryDy=0;endArrow=diamondThin;endFill=0;endSize=12;" edge="1" parent="WIyWlLk6GJQsqaUBKTNV-1" source="cTSybKkuy7gmy8g6b1z0-0" target="eVLE40hb4WPYAKezZBtz-11">
          <mxGeometry relative="1" as="geometry">
            <Array as="points">
              <mxPoint x="1053" y="290" />
            </Array>
          </mxGeometry>
        </mxCell>
        <mxCell id="eVLE40hb4WPYAKezZBtz-100" style="edgeStyle=orthogonalEdgeStyle;rounded=0;orthogonalLoop=1;jettySize=auto;html=1;exitX=0.998;exitY=0.234;exitDx=0;exitDy=0;entryX=0.11;entryY=1.004;entryDx=0;entryDy=0;endArrow=diamondThin;endFill=0;endSize=12;exitPerimeter=0;entryPerimeter=0;" edge="1" parent="WIyWlLk6GJQsqaUBKTNV-1" source="cTSybKkuy7gmy8g6b1z0-0" target="eVLE40hb4WPYAKezZBtz-80">
          <mxGeometry relative="1" as="geometry">
            <Array as="points">
              <mxPoint x="539" y="226" />
              <mxPoint x="640" y="226" />
            </Array>
          </mxGeometry>
        </mxCell>
        <mxCell id="n8O6fxKU8NbzI1frYbCg-11" style="edgeStyle=orthogonalEdgeStyle;rounded=0;orthogonalLoop=1;jettySize=auto;html=1;exitX=0.5;exitY=1;exitDx=0;exitDy=0;entryX=0.5;entryY=0;entryDx=0;entryDy=0;endSize=12;endArrow=diamondThin;endFill=0;" edge="1" parent="WIyWlLk6GJQsqaUBKTNV-1" source="cTSybKkuy7gmy8g6b1z0-0" target="cTSybKkuy7gmy8g6b1z0-9">
          <mxGeometry relative="1" as="geometry" />
        </mxCell>
        <mxCell id="n8O6fxKU8NbzI1frYbCg-12" style="edgeStyle=orthogonalEdgeStyle;rounded=0;orthogonalLoop=1;jettySize=auto;html=1;exitX=0.5;exitY=1;exitDx=0;exitDy=0;endArrow=diamondThin;endFill=0;endSize=12;" edge="1" parent="WIyWlLk6GJQsqaUBKTNV-1" source="cTSybKkuy7gmy8g6b1z0-0" target="eVLE40hb4WPYAKezZBtz-7">
          <mxGeometry relative="1" as="geometry" />
        </mxCell>
        <mxCell id="n8O6fxKU8NbzI1frYbCg-13" style="edgeStyle=orthogonalEdgeStyle;rounded=0;orthogonalLoop=1;jettySize=auto;html=1;exitX=0.5;exitY=1;exitDx=0;exitDy=0;entryX=0.5;entryY=0;entryDx=0;entryDy=0;endArrow=diamondThin;endFill=0;endSize=12;" edge="1" parent="WIyWlLk6GJQsqaUBKTNV-1" source="cTSybKkuy7gmy8g6b1z0-0" target="cTSybKkuy7gmy8g6b1z0-4">
          <mxGeometry relative="1" as="geometry" />
        </mxCell>
        <mxCell id="cTSybKkuy7gmy8g6b1z0-0" value="&lt;p style=&quot;margin:0px;margin-top:4px;text-align:center;&quot;&gt;&lt;b&gt;Restaurant&lt;/b&gt;&lt;/p&gt;&lt;hr size=&quot;1&quot; style=&quot;border-style:solid;&quot;&gt;&lt;p style=&quot;margin:0px;margin-left:4px;&quot;&gt;&lt;u&gt;- _restaurant: Restaurant [0..1]&lt;/u&gt;&lt;/p&gt;&lt;p style=&quot;margin:0px;margin-left:4px;&quot;&gt;- _orders: Queue&amp;lt;IOrder&amp;gt; = [] {readOnly}&lt;/p&gt;&lt;p style=&quot;margin:0px;margin-left:4px;&quot;&gt;- _completedOrders: List&amp;lt;IOrder&amp;gt; = [] {readOnly}&lt;br&gt;&lt;/p&gt;&lt;p style=&quot;margin:0px;margin-left:4px;&quot;&gt;- _orderHandler: IOrderHandler {readOnly}&lt;br&gt;&lt;/p&gt;&lt;hr size=&quot;1&quot; style=&quot;border-style:solid;&quot;&gt;&lt;p style=&quot;margin:0px;margin-left:4px;&quot;&gt;- Restaurant()&lt;/p&gt;&lt;p style=&quot;margin:0px;margin-left:4px;&quot;&gt;&lt;u&gt;+ GetInstance(): Restaurant&lt;/u&gt;&lt;/p&gt;&lt;p style=&quot;margin:0px;margin-left:4px;&quot;&gt;+ AddEmployee(cook: Cook): void&lt;/p&gt;&lt;p style=&quot;margin:0px;margin-left:4px;&quot;&gt;+ AddEmployee(waiter: Waiter): void&lt;/p&gt;&lt;p style=&quot;margin:0px;margin-left:4px;&quot;&gt;+ AddEmployee(deliveryman: Deliveryman): void&lt;/p&gt;&lt;p style=&quot;margin:0px;margin-left:4px;&quot;&gt;&lt;u&gt;- LogAddedEmployee(&lt;/u&gt;&lt;u&gt;employee: &lt;/u&gt;&lt;u&gt;IEmployee): void&lt;/u&gt;&lt;/p&gt;&lt;p style=&quot;margin:0px;margin-left:4px;&quot;&gt;+ AddOrder(order: IOrder): void&lt;/p&gt;&lt;p style=&quot;margin:0px;margin-left:4px;&quot;&gt;+ GetAvailableCook(): Cook [0..1]&lt;br&gt;&lt;/p&gt;&lt;p style=&quot;margin:0px;margin-left:4px;&quot;&gt;+ GetAvaiableWaiter(): Waiter [0..1]&lt;/p&gt;&lt;p style=&quot;margin:0px;margin-left:4px;&quot;&gt;+ GetAvailableDeliveryman(): Deliveryman [0..1]&lt;/p&gt;&lt;p style=&quot;margin:0px;margin-left:4px;&quot;&gt;+ GetCompletedOrders(): List&amp;lt;IOrder&amp;gt;&lt;/p&gt;&lt;p style=&quot;margin:0px;margin-left:4px;&quot;&gt;+ StartWorking(): void&lt;br&gt;&lt;/p&gt;" style="verticalAlign=top;align=left;overflow=fill;html=1;whiteSpace=wrap;" vertex="1" parent="WIyWlLk6GJQsqaUBKTNV-1">
          <mxGeometry x="260" y="170" width="280" height="280" as="geometry" />
        </mxCell>
        <mxCell id="eVLE40hb4WPYAKezZBtz-6" style="edgeStyle=orthogonalEdgeStyle;rounded=0;orthogonalLoop=1;jettySize=auto;html=1;exitX=0.5;exitY=1;exitDx=0;exitDy=0;entryX=0.25;entryY=0;entryDx=0;entryDy=0;endArrow=block;endFill=0;" edge="1" parent="WIyWlLk6GJQsqaUBKTNV-1" source="cTSybKkuy7gmy8g6b1z0-4" target="eVLE40hb4WPYAKezZBtz-0">
          <mxGeometry relative="1" as="geometry" />
        </mxCell>
        <mxCell id="cTSybKkuy7gmy8g6b1z0-4" value="&lt;p style=&quot;margin:0px;margin-top:4px;text-align:center;&quot;&gt;&lt;b&gt;Waiter&lt;/b&gt;&lt;/p&gt;&lt;hr size=&quot;1&quot; style=&quot;border-style:solid;&quot;&gt;&lt;p style=&quot;margin:0px;margin-left:4px;&quot;&gt;+ ProcessOrderAsync(order: IOrder): Task&amp;lt;IOrder&amp;gt; &lt;br&gt;&lt;/p&gt;&lt;p style=&quot;margin:0px;margin-left:4px;&quot;&gt;+ ToString(): string&lt;br&gt;&lt;/p&gt;" style="verticalAlign=top;align=left;overflow=fill;html=1;whiteSpace=wrap;" vertex="1" parent="WIyWlLk6GJQsqaUBKTNV-1">
          <mxGeometry x="10" y="510" width="160" height="90" as="geometry" />
        </mxCell>
        <mxCell id="n8O6fxKU8NbzI1frYbCg-15" style="edgeStyle=orthogonalEdgeStyle;rounded=0;orthogonalLoop=1;jettySize=auto;html=1;exitX=1;exitY=0.5;exitDx=0;exitDy=0;entryX=0;entryY=0.25;entryDx=0;entryDy=0;endArrow=open;endFill=0;dashed=1;dashPattern=8 8;" edge="1" parent="WIyWlLk6GJQsqaUBKTNV-1" source="cTSybKkuy7gmy8g6b1z0-8" target="eVLE40hb4WPYAKezZBtz-11">
          <mxGeometry relative="1" as="geometry">
            <Array as="points">
              <mxPoint x="610" y="875" />
              <mxPoint x="610" y="340" />
              <mxPoint x="950" y="340" />
              <mxPoint x="950" y="387" />
              <mxPoint x="1000" y="387" />
            </Array>
          </mxGeometry>
        </mxCell>
        <mxCell id="cTSybKkuy7gmy8g6b1z0-8" value="&lt;p style=&quot;margin:0px;margin-top:4px;text-align:center;&quot;&gt;&lt;i&gt;&amp;lt;&amp;lt;Interface&amp;gt;&amp;gt;&lt;/i&gt;&lt;/p&gt;&lt;p style=&quot;margin:0px;margin-top:4px;text-align:center;&quot;&gt;&lt;b&gt;IEmployee&lt;/b&gt;&lt;br&gt;&lt;/p&gt;&lt;hr size=&quot;1&quot; style=&quot;border-style:solid;&quot;&gt;&lt;p style=&quot;margin:0px;margin-left:4px;&quot;&gt;+ ProcessOrderAsync(order: IOrder): Task&amp;lt;IOrder&amp;gt; &lt;br&gt;&lt;/p&gt;" style="verticalAlign=top;align=left;overflow=fill;html=1;whiteSpace=wrap;" vertex="1" parent="WIyWlLk6GJQsqaUBKTNV-1">
          <mxGeometry x="200" y="875" width="190" height="100" as="geometry" />
        </mxCell>
        <mxCell id="eVLE40hb4WPYAKezZBtz-5" style="edgeStyle=orthogonalEdgeStyle;rounded=0;orthogonalLoop=1;jettySize=auto;html=1;exitX=0.5;exitY=1;exitDx=0;exitDy=0;entryX=0.75;entryY=0;entryDx=0;entryDy=0;endArrow=block;endFill=0;" edge="1" parent="WIyWlLk6GJQsqaUBKTNV-1" source="cTSybKkuy7gmy8g6b1z0-9" target="eVLE40hb4WPYAKezZBtz-0">
          <mxGeometry relative="1" as="geometry" />
        </mxCell>
        <mxCell id="cTSybKkuy7gmy8g6b1z0-9" value="&lt;p style=&quot;margin:0px;margin-top:4px;text-align:center;&quot;&gt;&lt;b&gt;Deliveryman&lt;/b&gt;&lt;/p&gt;&lt;hr size=&quot;1&quot; style=&quot;border-style:solid;&quot;&gt;&lt;p style=&quot;margin:0px;margin-left:4px;&quot;&gt;+&amp;nbsp;ProcessOrderAsync(order: IOrder): Task&amp;lt;IOrder&amp;gt; &lt;/p&gt;&amp;nbsp;+ ToString(): string&lt;p style=&quot;margin:0px;margin-left:4px;&quot;&gt;&lt;/p&gt;" style="verticalAlign=top;align=left;overflow=fill;html=1;whiteSpace=wrap;" vertex="1" parent="WIyWlLk6GJQsqaUBKTNV-1">
          <mxGeometry x="420" y="510" width="160" height="90" as="geometry" />
        </mxCell>
        <mxCell id="eVLE40hb4WPYAKezZBtz-4" style="edgeStyle=orthogonalEdgeStyle;rounded=0;orthogonalLoop=1;jettySize=auto;html=1;exitX=0.5;exitY=1;exitDx=0;exitDy=0;entryX=0.5;entryY=0;entryDx=0;entryDy=0;endArrow=block;endFill=0;dashed=1;dashPattern=8 8;" edge="1" parent="WIyWlLk6GJQsqaUBKTNV-1" source="eVLE40hb4WPYAKezZBtz-0" target="cTSybKkuy7gmy8g6b1z0-8">
          <mxGeometry relative="1" as="geometry" />
        </mxCell>
        <mxCell id="eVLE40hb4WPYAKezZBtz-0" value="&lt;p style=&quot;margin:0px;margin-top:4px;text-align:center;&quot;&gt;&lt;b&gt;Employee {abstract}&lt;br&gt;&lt;/b&gt;&lt;/p&gt;&lt;hr size=&quot;1&quot; style=&quot;border-style:solid;&quot;&gt;&lt;p style=&quot;margin:0px;margin-left:4px;&quot;&gt;# _name: string {readOnly}&lt;/p&gt;&lt;p style=&quot;margin:0px;margin-left:4px;&quot;&gt;+&amp;lt;&amp;lt;get&amp;gt;&amp;gt; -&amp;lt;&amp;lt;set&amp;gt;&amp;gt; IsBusy: bool&lt;/p&gt;&lt;hr size=&quot;1&quot; style=&quot;border-style:solid;&quot;&gt;&lt;p style=&quot;margin:0px;margin-left:4px;&quot;&gt;+ MarkAsBusy(): void&lt;/p&gt;&lt;p style=&quot;margin:0px;margin-left:4px;&quot;&gt;+ MarkAsNotBusy(): void&lt;/p&gt;&lt;p style=&quot;margin:0px;margin-left:4px;&quot;&gt;+ &lt;i&gt;ProcessOrderAsync(&lt;/i&gt;&lt;i&gt;order: &lt;/i&gt;&lt;i&gt;IOrder): Task&amp;lt;IOrder&amp;gt;&lt;/i&gt;&lt;/p&gt;&lt;p style=&quot;margin:0px;margin-left:4px;&quot;&gt;&lt;i&gt;+ ToString(): string&lt;br&gt;&lt;/i&gt;&lt;/p&gt;" style="verticalAlign=top;align=left;overflow=fill;html=1;whiteSpace=wrap;" vertex="1" parent="WIyWlLk6GJQsqaUBKTNV-1">
          <mxGeometry x="200" y="670" width="190" height="160" as="geometry" />
        </mxCell>
        <mxCell id="eVLE40hb4WPYAKezZBtz-8" style="edgeStyle=orthogonalEdgeStyle;rounded=0;orthogonalLoop=1;jettySize=auto;html=1;entryX=0.5;entryY=0;entryDx=0;entryDy=0;endArrow=block;endFill=0;" edge="1" parent="WIyWlLk6GJQsqaUBKTNV-1" source="eVLE40hb4WPYAKezZBtz-7" target="eVLE40hb4WPYAKezZBtz-0">
          <mxGeometry relative="1" as="geometry" />
        </mxCell>
        <mxCell id="eVLE40hb4WPYAKezZBtz-7" value="&lt;p style=&quot;margin:0px;margin-top:4px;text-align:center;&quot;&gt;&lt;b&gt;Cook&lt;/b&gt;&lt;/p&gt;&lt;hr size=&quot;1&quot; style=&quot;border-style:solid;&quot;&gt;&lt;p style=&quot;margin:0px;margin-left:4px;&quot;&gt;+ ProcessOrderAsync(order: IOrder): Task&amp;lt;IOrder&amp;gt;&lt;/p&gt;&amp;nbsp;+ ToString(): string&lt;p style=&quot;margin:0px;margin-left:4px;&quot;&gt;&lt;/p&gt;" style="verticalAlign=top;align=left;overflow=fill;html=1;whiteSpace=wrap;" vertex="1" parent="WIyWlLk6GJQsqaUBKTNV-1">
          <mxGeometry x="215" y="510" width="160" height="90" as="geometry" />
        </mxCell>
        <mxCell id="eVLE40hb4WPYAKezZBtz-12" style="edgeStyle=orthogonalEdgeStyle;rounded=0;orthogonalLoop=1;jettySize=auto;html=1;entryX=1;entryY=0.75;entryDx=0;entryDy=0;endArrow=block;endFill=0;dashed=1;dashPattern=8 8;" edge="1" parent="WIyWlLk6GJQsqaUBKTNV-1" source="eVLE40hb4WPYAKezZBtz-10" target="eVLE40hb4WPYAKezZBtz-11">
          <mxGeometry relative="1" as="geometry" />
        </mxCell>
        <mxCell id="eVLE40hb4WPYAKezZBtz-19" style="edgeStyle=orthogonalEdgeStyle;rounded=0;orthogonalLoop=1;jettySize=auto;html=1;exitX=0;exitY=0.75;exitDx=0;exitDy=0;entryX=1;entryY=0.5;entryDx=0;entryDy=0;endArrow=open;endFill=0;" edge="1" parent="WIyWlLk6GJQsqaUBKTNV-1" source="eVLE40hb4WPYAKezZBtz-11" target="eVLE40hb4WPYAKezZBtz-17">
          <mxGeometry relative="1" as="geometry" />
        </mxCell>
        <mxCell id="eVLE40hb4WPYAKezZBtz-10" value="&lt;p style=&quot;margin:0px;margin-top:4px;text-align:center;&quot;&gt;&lt;b&gt;Order&lt;/b&gt;&lt;/p&gt;&lt;hr size=&quot;1&quot; style=&quot;border-style:solid;&quot;&gt;&lt;p style=&quot;margin:0px;margin-left:4px;&quot;&gt;- _meals: List&amp;lt;Meal&amp;gt; {readOnly}&lt;/p&gt;&lt;p style=&quot;margin:0px;margin-left:4px;&quot;&gt;- _deliveryCost: double {readOnly}&lt;br&gt;&lt;/p&gt;" style="verticalAlign=top;align=left;overflow=fill;html=1;whiteSpace=wrap;" vertex="1" parent="WIyWlLk6GJQsqaUBKTNV-1">
          <mxGeometry x="1280" y="525" width="200" height="70" as="geometry" />
        </mxCell>
        <mxCell id="eVLE40hb4WPYAKezZBtz-47" style="edgeStyle=orthogonalEdgeStyle;rounded=0;orthogonalLoop=1;jettySize=auto;html=1;exitX=0;exitY=0.5;exitDx=0;exitDy=0;entryX=1;entryY=0.5;entryDx=0;entryDy=0;endArrow=open;endFill=0;" edge="1" parent="WIyWlLk6GJQsqaUBKTNV-1" source="eVLE40hb4WPYAKezZBtz-11" target="eVLE40hb4WPYAKezZBtz-46">
          <mxGeometry relative="1" as="geometry" />
        </mxCell>
        <mxCell id="eVLE40hb4WPYAKezZBtz-99" style="edgeStyle=orthogonalEdgeStyle;rounded=0;orthogonalLoop=1;jettySize=auto;html=1;exitX=0.75;exitY=0;exitDx=0;exitDy=0;entryX=0.75;entryY=1;entryDx=0;entryDy=0;endArrow=diamondThin;endFill=0;endSize=12;" edge="1" parent="WIyWlLk6GJQsqaUBKTNV-1" source="eVLE40hb4WPYAKezZBtz-11" target="eVLE40hb4WPYAKezZBtz-44">
          <mxGeometry relative="1" as="geometry" />
        </mxCell>
        <mxCell id="eVLE40hb4WPYAKezZBtz-11" value="&lt;p style=&quot;margin:0px;margin-top:4px;text-align:center;&quot;&gt;&lt;i&gt;&amp;lt;&amp;lt;Interface&amp;gt;&amp;gt;&lt;/i&gt;&lt;/p&gt;&lt;p style=&quot;margin:0px;margin-top:4px;text-align:center;&quot;&gt;&lt;b&gt;IOrder&lt;/b&gt;&lt;br&gt;&lt;/p&gt;&lt;hr size=&quot;1&quot; style=&quot;border-style:solid;&quot;&gt;&lt;p style=&quot;margin:0px;margin-left:4px;&quot;&gt;+&amp;lt;&amp;lt;get&amp;gt;&amp;gt; Name: string &lt;br&gt;&lt;/p&gt;&lt;p style=&quot;margin:0px;margin-left:4px;&quot;&gt;+&amp;lt;&amp;lt;get&amp;gt;&amp;gt; Status: OrderStatus&lt;/p&gt;&lt;p style=&quot;margin:0px;margin-left:4px;&quot;&gt;+&amp;lt;&amp;lt;get&amp;gt;&amp;gt; IsDelivery: bool&lt;br&gt;&lt;/p&gt;&lt;p style=&quot;margin:0px;margin-left:4px;&quot;&gt;+&amp;lt;&amp;lt;get&amp;gt;&amp;gt; DeliveryAddress: DeliveryAddress [0..1]&lt;br&gt;&lt;/p&gt;&lt;hr size=&quot;1&quot; style=&quot;border-style:solid;&quot;&gt;&lt;p style=&quot;margin:0px;margin-left:4px;&quot;&gt;+ AddMeal(meal: Meal): void&lt;/p&gt;&lt;p style=&quot;margin:0px;margin-left:4px;&quot;&gt;+ GetMeals(): List&amp;lt;Meal&amp;gt;&lt;/p&gt;&lt;p style=&quot;margin:0px;margin-left:4px;&quot;&gt;+ SetOrderStatus(orderStatus: OrderStatus): void&lt;/p&gt;&lt;p style=&quot;margin:0px;margin-left:4px;&quot;&gt;+ SetDeliveryCost(cost: double): void&lt;/p&gt;&lt;p style=&quot;margin:0px;margin-left:4px;&quot;&gt;+ GetDeliveryCost(): double&lt;br&gt;&lt;/p&gt;&lt;p style=&quot;margin:0px;margin-left:4px;&quot;&gt;+ GetTotalCost(): double&lt;/p&gt;&lt;p style=&quot;margin:0px;margin-left:4px;&quot;&gt;+ ToString(): string&lt;br&gt;&lt;/p&gt;&lt;p style=&quot;margin:0px;margin-left:4px;&quot;&gt;&lt;br&gt;&lt;/p&gt;" style="verticalAlign=top;align=left;overflow=fill;html=1;whiteSpace=wrap;" vertex="1" parent="WIyWlLk6GJQsqaUBKTNV-1">
          <mxGeometry x="1000" y="325" width="210" height="265" as="geometry" />
        </mxCell>
        <mxCell id="eVLE40hb4WPYAKezZBtz-17" value="&lt;p style=&quot;margin:0px;margin-top:4px;text-align:center;&quot;&gt;&amp;lt;&amp;lt;enumeration&amp;gt;&amp;gt;&lt;b&gt;&lt;br&gt;&lt;/b&gt;&lt;/p&gt;&lt;p style=&quot;margin:0px;margin-top:4px;text-align:center;&quot;&gt;&lt;b&gt;OrderStatus&lt;/b&gt;&lt;/p&gt;&lt;hr size=&quot;1&quot; style=&quot;border-style:solid;&quot;&gt;&lt;p style=&quot;margin:0px;margin-left:4px;&quot;&gt;New&lt;/p&gt;&lt;p style=&quot;margin:0px;margin-left:4px;&quot;&gt;In_Kitchen&lt;/p&gt;&lt;p style=&quot;margin:0px;margin-left:4px;&quot;&gt;Prepared&lt;/p&gt;&lt;p style=&quot;margin:0px;margin-left:4px;&quot;&gt;In_Delivery&lt;/p&gt;&lt;p style=&quot;margin:0px;margin-left:4px;&quot;&gt;Completed&lt;br&gt;&lt;/p&gt;" style="verticalAlign=top;align=left;overflow=fill;html=1;whiteSpace=wrap;" vertex="1" parent="WIyWlLk6GJQsqaUBKTNV-1">
          <mxGeometry x="727.5" y="500" width="135" height="140" as="geometry" />
        </mxCell>
        <mxCell id="eVLE40hb4WPYAKezZBtz-22" style="edgeStyle=orthogonalEdgeStyle;rounded=0;orthogonalLoop=1;jettySize=auto;html=1;entryX=1;entryY=0.5;entryDx=0;entryDy=0;endArrow=block;endFill=0;dashed=1;dashPattern=8 8;" edge="1" parent="WIyWlLk6GJQsqaUBKTNV-1" source="eVLE40hb4WPYAKezZBtz-20" target="eVLE40hb4WPYAKezZBtz-11">
          <mxGeometry relative="1" as="geometry" />
        </mxCell>
        <mxCell id="eVLE40hb4WPYAKezZBtz-20" value="&lt;p style=&quot;margin:0px;margin-top:4px;text-align:center;&quot;&gt;&lt;b&gt;OrderDecorator {abstract}&lt;br&gt;&lt;/b&gt;&lt;/p&gt;&lt;hr size=&quot;1&quot; style=&quot;border-style:solid;&quot;&gt;&lt;p style=&quot;margin:0px;margin-left:4px;&quot;&gt;- _order: IOrder&lt;br&gt;&lt;/p&gt;" style="verticalAlign=top;align=left;overflow=fill;html=1;whiteSpace=wrap;" vertex="1" parent="WIyWlLk6GJQsqaUBKTNV-1">
          <mxGeometry x="1290" y="346.25" width="180" height="77.5" as="geometry" />
        </mxCell>
        <mxCell id="eVLE40hb4WPYAKezZBtz-23" value="&lt;p style=&quot;margin:0px;margin-top:4px;text-align:center;&quot;&gt;&lt;b&gt;PercentageDiscountOrderDecorator&lt;/b&gt;&lt;/p&gt;&lt;hr size=&quot;1&quot; style=&quot;border-style:solid;&quot;&gt;&lt;p style=&quot;margin:0px;margin-left:4px;&quot;&gt;- _percent: double {readOnly}&lt;br&gt;&lt;/p&gt;&lt;hr size=&quot;1&quot; style=&quot;border-style:solid;&quot;&gt;&lt;p style=&quot;margin:0px;margin-left:4px;&quot;&gt;+ GetTotalCost(): double&lt;/p&gt;&lt;p style=&quot;margin:0px;margin-left:4px;&quot;&gt;+ ToString(): string&lt;br&gt;&lt;/p&gt;" style="verticalAlign=top;align=left;overflow=fill;html=1;whiteSpace=wrap;" vertex="1" parent="WIyWlLk6GJQsqaUBKTNV-1">
          <mxGeometry x="1600" y="105" width="290" height="100" as="geometry" />
        </mxCell>
        <mxCell id="eVLE40hb4WPYAKezZBtz-35" style="edgeStyle=orthogonalEdgeStyle;rounded=0;orthogonalLoop=1;jettySize=auto;html=1;exitX=0;exitY=0.5;exitDx=0;exitDy=0;endArrow=none;endFill=0;" edge="1" parent="WIyWlLk6GJQsqaUBKTNV-1" source="eVLE40hb4WPYAKezZBtz-24" target="eVLE40hb4WPYAKezZBtz-32">
          <mxGeometry relative="1" as="geometry" />
        </mxCell>
        <mxCell id="eVLE40hb4WPYAKezZBtz-24" value="&lt;p style=&quot;margin:0px;margin-top:4px;text-align:center;&quot;&gt;&lt;b&gt;CashAmountDiscountOrderDecorator&lt;/b&gt;&lt;/p&gt;&lt;hr size=&quot;1&quot; style=&quot;border-style:solid;&quot;&gt;&lt;p style=&quot;margin:0px;margin-left:4px;&quot;&gt;- _amount: double {readOnly}&lt;br&gt;&lt;/p&gt;&lt;hr size=&quot;1&quot; style=&quot;border-style:solid;&quot;&gt;&lt;p style=&quot;margin:0px;margin-left:4px;&quot;&gt;+ GetTotalCost(): double&lt;/p&gt;&amp;nbsp;+ ToString(): string" style="verticalAlign=top;align=left;overflow=fill;html=1;whiteSpace=wrap;" vertex="1" parent="WIyWlLk6GJQsqaUBKTNV-1">
          <mxGeometry x="1600" y="335" width="290" height="100" as="geometry" />
        </mxCell>
        <mxCell id="eVLE40hb4WPYAKezZBtz-25" value="&lt;p style=&quot;margin:0px;margin-top:4px;text-align:center;&quot;&gt;&lt;b&gt;PercentageTipOrderDecorator&lt;/b&gt;&lt;/p&gt;&lt;hr size=&quot;1&quot; style=&quot;border-style:solid;&quot;&gt;&lt;p style=&quot;margin:0px;margin-left:4px;&quot;&gt;- _percent: double {readOnly}&lt;br&gt;&lt;/p&gt;&lt;hr size=&quot;1&quot; style=&quot;border-style:solid;&quot;&gt;&lt;p style=&quot;margin:0px;margin-left:4px;&quot;&gt;+ GetTotalCost(): double&lt;/p&gt;&amp;nbsp;+ ToString(): string" style="verticalAlign=top;align=left;overflow=fill;html=1;whiteSpace=wrap;" vertex="1" parent="WIyWlLk6GJQsqaUBKTNV-1">
          <mxGeometry x="1600" y="225" width="290" height="100" as="geometry" />
        </mxCell>
        <mxCell id="eVLE40hb4WPYAKezZBtz-26" value="&lt;p style=&quot;margin:0px;margin-top:4px;text-align:center;&quot;&gt;&lt;b&gt;CashAmountTipOrderDecorator&lt;/b&gt;&lt;/p&gt;&lt;hr size=&quot;1&quot; style=&quot;border-style:solid;&quot;&gt;&lt;p style=&quot;margin:0px;margin-left:4px;&quot;&gt;- _amount: double {readOnly}&lt;br&gt;&lt;/p&gt;&lt;hr size=&quot;1&quot; style=&quot;border-style:solid;&quot;&gt;&lt;p style=&quot;margin:0px;margin-left:4px;&quot;&gt;+ GetTotalCost(): double&lt;/p&gt;&amp;nbsp;+ ToString(): string" style="verticalAlign=top;align=left;overflow=fill;html=1;whiteSpace=wrap;" vertex="1" parent="WIyWlLk6GJQsqaUBKTNV-1">
          <mxGeometry x="1600" y="450" width="290" height="100" as="geometry" />
        </mxCell>
        <mxCell id="eVLE40hb4WPYAKezZBtz-28" style="edgeStyle=orthogonalEdgeStyle;rounded=0;orthogonalLoop=1;jettySize=auto;html=1;entryX=1;entryY=0.5;entryDx=0;entryDy=0;endArrow=block;endFill=0;" edge="1" parent="WIyWlLk6GJQsqaUBKTNV-1" source="eVLE40hb4WPYAKezZBtz-32" target="eVLE40hb4WPYAKezZBtz-20">
          <mxGeometry relative="1" as="geometry" />
        </mxCell>
        <mxCell id="eVLE40hb4WPYAKezZBtz-27" value="&lt;p style=&quot;margin:0px;margin-top:4px;text-align:center;&quot;&gt;&lt;b&gt;FreeDeliveryDiscountOrderDecorator&lt;/b&gt;&lt;/p&gt;&lt;hr size=&quot;1&quot; style=&quot;border-style:solid;&quot;&gt;&lt;div&gt;&amp;nbsp;+ ToString(): string&lt;/div&gt;" style="verticalAlign=top;align=left;overflow=fill;html=1;whiteSpace=wrap;" vertex="1" parent="WIyWlLk6GJQsqaUBKTNV-1">
          <mxGeometry x="1600" y="565" width="290" height="65" as="geometry" />
        </mxCell>
        <mxCell id="eVLE40hb4WPYAKezZBtz-32" value="" style="shape=waypoint;sketch=0;fillStyle=solid;size=6;pointerEvents=1;points=[];fillColor=none;resizable=0;rotatable=0;perimeter=centerPerimeter;snapToPoint=1;strokeWidth=1;strokeColor=none;" vertex="1" parent="WIyWlLk6GJQsqaUBKTNV-1">
          <mxGeometry x="1520" y="375" width="20" height="20" as="geometry" />
        </mxCell>
        <mxCell id="eVLE40hb4WPYAKezZBtz-33" style="edgeStyle=orthogonalEdgeStyle;rounded=0;orthogonalLoop=1;jettySize=auto;html=1;endArrow=none;endFill=0;" edge="1" parent="WIyWlLk6GJQsqaUBKTNV-1" source="eVLE40hb4WPYAKezZBtz-23" target="eVLE40hb4WPYAKezZBtz-32">
          <mxGeometry relative="1" as="geometry">
            <mxPoint x="1530" y="370" as="targetPoint" />
          </mxGeometry>
        </mxCell>
        <mxCell id="eVLE40hb4WPYAKezZBtz-34" style="edgeStyle=orthogonalEdgeStyle;rounded=0;orthogonalLoop=1;jettySize=auto;html=1;entryX=0.75;entryY=0.3;entryDx=0;entryDy=0;entryPerimeter=0;endArrow=none;endFill=0;" edge="1" parent="WIyWlLk6GJQsqaUBKTNV-1" source="eVLE40hb4WPYAKezZBtz-25" target="eVLE40hb4WPYAKezZBtz-32">
          <mxGeometry relative="1" as="geometry" />
        </mxCell>
        <mxCell id="eVLE40hb4WPYAKezZBtz-41" style="edgeStyle=orthogonalEdgeStyle;rounded=0;orthogonalLoop=1;jettySize=auto;html=1;exitX=0;exitY=0.5;exitDx=0;exitDy=0;entryX=0.55;entryY=0.9;entryDx=0;entryDy=0;entryPerimeter=0;endArrow=none;endFill=0;" edge="1" parent="WIyWlLk6GJQsqaUBKTNV-1" source="eVLE40hb4WPYAKezZBtz-27" target="eVLE40hb4WPYAKezZBtz-32">
          <mxGeometry relative="1" as="geometry" />
        </mxCell>
        <mxCell id="eVLE40hb4WPYAKezZBtz-43" style="edgeStyle=orthogonalEdgeStyle;rounded=0;orthogonalLoop=1;jettySize=auto;html=1;entryX=0;entryY=0.25;entryDx=0;entryDy=0;entryPerimeter=0;endArrow=none;endFill=0;" edge="1" parent="WIyWlLk6GJQsqaUBKTNV-1" source="eVLE40hb4WPYAKezZBtz-26" target="eVLE40hb4WPYAKezZBtz-32">
          <mxGeometry relative="1" as="geometry" />
        </mxCell>
        <mxCell id="eVLE40hb4WPYAKezZBtz-49" style="edgeStyle=orthogonalEdgeStyle;rounded=0;orthogonalLoop=1;jettySize=auto;html=1;entryX=0;entryY=0.5;entryDx=0;entryDy=0;endArrow=diamondThin;endFill=0;endSize=12;" edge="1" parent="WIyWlLk6GJQsqaUBKTNV-1" source="eVLE40hb4WPYAKezZBtz-44" target="eVLE40hb4WPYAKezZBtz-45">
          <mxGeometry relative="1" as="geometry" />
        </mxCell>
        <mxCell id="eVLE40hb4WPYAKezZBtz-44" value="&lt;p style=&quot;margin:0px;margin-top:4px;text-align:center;&quot;&gt;&lt;b&gt;Meal {abstract}&lt;br&gt;&lt;/b&gt;&lt;/p&gt;&lt;hr size=&quot;1&quot; style=&quot;border-style:solid;&quot;&gt;&lt;p style=&quot;margin:0px;margin-left:4px;&quot;&gt;+&amp;lt;&amp;lt;get&amp;gt;&amp;gt; #&amp;lt;&amp;lt;set&amp;gt;&amp;gt; MainCourse:&amp;nbsp;&lt;/p&gt;&lt;p style=&quot;margin:0px;margin-left:4px;&quot;&gt;MealItem [0..1]&lt;/p&gt;&lt;p style=&quot;margin:0px;margin-left:4px;&quot;&gt;+&amp;lt;&amp;lt;get&amp;gt;&amp;gt; #&amp;lt;&amp;lt;set&amp;gt;&amp;gt; MainCourse:&amp;nbsp;&lt;/p&gt;&lt;p style=&quot;margin:0px;margin-left:4px;&quot;&gt;MealItem [0..1]&lt;/p&gt;&lt;p style=&quot;margin:0px;margin-left:4px;&quot;&gt;+ &amp;lt;&amp;lt;get&amp;gt;&amp;gt; #&amp;lt;&amp;lt;set&amp;gt;&amp;gt; MainCourse:&amp;nbsp;&lt;/p&gt;&lt;p style=&quot;margin:0px;margin-left:4px;&quot;&gt;MealItem [0..1]&lt;/p&gt;&lt;hr size=&quot;1&quot; style=&quot;border-style:solid;&quot;&gt;&lt;p style=&quot;margin:0px;margin-left:4px;&quot;&gt;+ GetTotalCost(): double&lt;/p&gt;&lt;p style=&quot;margin:0px;margin-left:4px;&quot;&gt;+ ToString(): string&lt;br&gt;&lt;/p&gt;" style="verticalAlign=top;align=left;overflow=fill;html=1;whiteSpace=wrap;" vertex="1" parent="WIyWlLk6GJQsqaUBKTNV-1">
          <mxGeometry x="1050" y="40" width="216" height="170" as="geometry" />
        </mxCell>
        <mxCell id="eVLE40hb4WPYAKezZBtz-45" value="&lt;p style=&quot;margin:0px;margin-top:4px;text-align:center;&quot;&gt;&lt;b&gt;MealItem&lt;/b&gt;&lt;/p&gt;&lt;hr size=&quot;1&quot; style=&quot;border-style:solid;&quot;&gt;&lt;p style=&quot;margin:0px;margin-left:4px;&quot;&gt;+&amp;lt;&amp;lt;get&amp;gt;&amp;gt; Name: string&lt;/p&gt;&lt;p style=&quot;margin:0px;margin-left:4px;&quot;&gt;+&amp;lt;&amp;lt;get&amp;gt;&amp;gt; Price: double&lt;br&gt;&lt;/p&gt;" style="verticalAlign=top;align=left;overflow=fill;html=1;whiteSpace=wrap;" vertex="1" parent="WIyWlLk6GJQsqaUBKTNV-1">
          <mxGeometry x="1330" y="180" width="170" height="90" as="geometry" />
        </mxCell>
        <mxCell id="eVLE40hb4WPYAKezZBtz-46" value="&lt;p style=&quot;margin:0px;margin-top:4px;text-align:center;&quot;&gt;&lt;b&gt;DeliveryAddress&lt;/b&gt;&lt;br&gt;&lt;/p&gt;&lt;hr size=&quot;1&quot; style=&quot;border-style:solid;&quot;&gt;&lt;p style=&quot;margin:0px;margin-left:4px;&quot;&gt;+&amp;lt;&amp;lt;get&amp;gt;&amp;gt; Price: double&lt;/p&gt;&lt;p style=&quot;margin:0px;margin-left:4px;&quot;&gt;+&amp;lt;&amp;lt;get&amp;gt;&amp;gt; City: string&lt;/p&gt;&lt;p style=&quot;margin:0px;margin-left:4px;&quot;&gt;+&amp;lt;&amp;lt;get&amp;gt;&amp;gt; ZipCode: string&lt;/p&gt;&lt;p style=&quot;margin:0px;margin-left:4px;&quot;&gt;+&amp;lt;&amp;lt;get&amp;gt;&amp;gt; Street: string&lt;/p&gt;&lt;p style=&quot;margin:0px;margin-left:4px;&quot;&gt;+&amp;lt;&amp;lt;get&amp;gt;&amp;gt; FlatNumber: string[0..1] = null&lt;br&gt;&lt;/p&gt;" style="verticalAlign=top;align=left;overflow=fill;html=1;whiteSpace=wrap;" vertex="1" parent="WIyWlLk6GJQsqaUBKTNV-1">
          <mxGeometry x="702.5" y="360" width="177.5" height="120" as="geometry" />
        </mxCell>
        <mxCell id="n8O6fxKU8NbzI1frYbCg-27" style="edgeStyle=orthogonalEdgeStyle;rounded=0;orthogonalLoop=1;jettySize=auto;html=1;exitX=0.5;exitY=1;exitDx=0;exitDy=0;entryX=0.25;entryY=0;entryDx=0;entryDy=0;endArrow=block;endFill=0;" edge="1" parent="WIyWlLk6GJQsqaUBKTNV-1" source="eVLE40hb4WPYAKezZBtz-53" target="eVLE40hb4WPYAKezZBtz-44">
          <mxGeometry relative="1" as="geometry" />
        </mxCell>
        <mxCell id="eVLE40hb4WPYAKezZBtz-53" value="&lt;p style=&quot;margin:0px;margin-top:4px;text-align:center;&quot;&gt;&lt;b&gt;BurgerMeal&lt;/b&gt;&lt;/p&gt;&lt;hr size=&quot;1&quot; style=&quot;border-style:solid;&quot;&gt;&lt;p style=&quot;margin:0px;margin-left:4px;&quot;&gt;+ SetMainCourse(mainCourse: BurgerMainCourseOption, price: double): void&lt;br&gt;&lt;/p&gt;&lt;p style=&quot;margin:0px;margin-left:4px;&quot;&gt;+ SetMainCourse(firstSideDish: BurgerFirstSideDishOption, price: double): void&lt;br&gt;&lt;/p&gt;&lt;p style=&quot;margin:0px;margin-left:4px;&quot;&gt;+ SetMainCourse(secondSideDish: BurgerSecondSideDishOption, double price): void&lt;br&gt;&lt;/p&gt;" style="verticalAlign=top;align=left;overflow=fill;html=1;whiteSpace=wrap;" vertex="1" parent="WIyWlLk6GJQsqaUBKTNV-1">
          <mxGeometry x="870" y="-140" width="280" height="130" as="geometry" />
        </mxCell>
        <mxCell id="n8O6fxKU8NbzI1frYbCg-26" style="edgeStyle=orthogonalEdgeStyle;rounded=0;orthogonalLoop=1;jettySize=auto;html=1;exitX=0.5;exitY=1;exitDx=0;exitDy=0;entryX=0.75;entryY=0;entryDx=0;entryDy=0;endArrow=block;endFill=0;" edge="1" parent="WIyWlLk6GJQsqaUBKTNV-1" source="eVLE40hb4WPYAKezZBtz-54" target="eVLE40hb4WPYAKezZBtz-44">
          <mxGeometry relative="1" as="geometry" />
        </mxCell>
        <mxCell id="eVLE40hb4WPYAKezZBtz-54" value="&lt;p style=&quot;margin:0px;margin-top:4px;text-align:center;&quot;&gt;&lt;b&gt;StandardMeal&lt;/b&gt;&lt;/p&gt;&lt;hr size=&quot;1&quot; style=&quot;border-style:solid;&quot;&gt;&lt;p style=&quot;margin:0px;margin-left:4px;&quot;&gt;+ SetMainCourse(mainCourse: StandardMainCourseOption, price: double): void&lt;br&gt;&lt;/p&gt;&lt;p style=&quot;margin:0px;margin-left:4px;&quot;&gt;+ SetMainCourse(firstSideDish: StandardFirstSideDishOption, price: double): void&lt;br&gt;&lt;/p&gt;&lt;div&gt;&amp;nbsp;+ SetMainCourse(secondSideDish:&lt;/div&gt;&lt;div&gt;&amp;nbsp;StandardSecondSideDishOption, price: double): void&lt;/div&gt;&lt;p style=&quot;margin:0px;margin-left:4px;&quot;&gt;&lt;/p&gt;" style="verticalAlign=top;align=left;overflow=fill;html=1;whiteSpace=wrap;" vertex="1" parent="WIyWlLk6GJQsqaUBKTNV-1">
          <mxGeometry x="1160" y="-140" width="290" height="130" as="geometry" />
        </mxCell>
        <mxCell id="eVLE40hb4WPYAKezZBtz-58" value="&lt;p style=&quot;margin:0px;margin-top:4px;text-align:center;&quot;&gt;&lt;i&gt;&amp;lt;&amp;lt;Interface&amp;gt;&amp;gt;&lt;/i&gt;&lt;/p&gt;&lt;p style=&quot;margin:0px;margin-top:4px;text-align:center;&quot;&gt;&lt;b&gt;IMealBuilder&amp;lt;T, U, W&amp;gt;&lt;/b&gt;&lt;br&gt;&lt;/p&gt;&lt;hr size=&quot;1&quot; style=&quot;border-style:solid;&quot;&gt;&lt;p style=&quot;margin:0px;margin-left:4px;&quot;&gt;+ SetDefaultMeal(): void&lt;/p&gt;&lt;p style=&quot;margin:0px;margin-left:4px;&quot;&gt;+ SetMainCourse(mainCourse: T): void&lt;/p&gt;&lt;p style=&quot;margin:0px;margin-left:4px;&quot;&gt;+ SetFirstSideDish(firstSideDish: U): void&lt;/p&gt;&lt;p style=&quot;margin:0px;margin-left:4px;&quot;&gt;+ SetSecondSideDish(secondSideDish: W) : void&lt;/p&gt;&lt;p style=&quot;margin:0px;margin-left:4px;&quot;&gt;+ Reset: void&lt;br&gt;&lt;/p&gt;" style="verticalAlign=top;align=left;overflow=fill;html=1;whiteSpace=wrap;" vertex="1" parent="WIyWlLk6GJQsqaUBKTNV-1">
          <mxGeometry x="1042.5" y="-490" width="237.5" height="150" as="geometry" />
        </mxCell>
        <mxCell id="eVLE40hb4WPYAKezZBtz-62" style="edgeStyle=orthogonalEdgeStyle;rounded=0;orthogonalLoop=1;jettySize=auto;html=1;exitX=0.5;exitY=1;exitDx=0;exitDy=0;endArrow=open;endFill=0;" edge="1" parent="WIyWlLk6GJQsqaUBKTNV-1" source="eVLE40hb4WPYAKezZBtz-59" target="eVLE40hb4WPYAKezZBtz-53">
          <mxGeometry relative="1" as="geometry" />
        </mxCell>
        <mxCell id="eVLE40hb4WPYAKezZBtz-64" style="edgeStyle=orthogonalEdgeStyle;rounded=0;orthogonalLoop=1;jettySize=auto;html=1;entryX=0.25;entryY=1;entryDx=0;entryDy=0;endArrow=block;endFill=0;dashed=1;dashPattern=8 8;" edge="1" parent="WIyWlLk6GJQsqaUBKTNV-1" source="eVLE40hb4WPYAKezZBtz-59" target="eVLE40hb4WPYAKezZBtz-58">
          <mxGeometry relative="1" as="geometry">
            <mxPoint x="1120" y="-330" as="targetPoint" />
          </mxGeometry>
        </mxCell>
        <mxCell id="eVLE40hb4WPYAKezZBtz-59" value="&lt;p style=&quot;margin:0px;margin-top:4px;text-align:center;&quot;&gt;&lt;b&gt;BurgerMealBuilder&lt;br&gt;&lt;/b&gt;&lt;/p&gt;&lt;hr size=&quot;1&quot; style=&quot;border-style:solid;&quot;&gt;&lt;p style=&quot;margin:0px;margin-left:4px;&quot;&gt;- _burgerMeal: BurgerMeal = new()&lt;/p&gt;&lt;p style=&quot;margin:0px;margin-left:4px;&quot;&gt;- MealItemPrices: Dictionary&amp;lt;Enum, double&amp;gt; = new() {readOnly}&lt;br&gt;&lt;/p&gt;&lt;hr size=&quot;1&quot; style=&quot;border-style:solid;&quot;&gt;&lt;p style=&quot;margin:0px;margin-left:4px;&quot;&gt;+ GetMeal(): BurgerMeal&lt;/p&gt;" style="verticalAlign=top;align=left;overflow=fill;html=1;whiteSpace=wrap;" vertex="1" parent="WIyWlLk6GJQsqaUBKTNV-1">
          <mxGeometry x="950" y="-290" width="200" height="110" as="geometry" />
        </mxCell>
        <mxCell id="eVLE40hb4WPYAKezZBtz-61" style="edgeStyle=orthogonalEdgeStyle;rounded=0;orthogonalLoop=1;jettySize=auto;html=1;exitX=0.5;exitY=1;exitDx=0;exitDy=0;entryX=0.5;entryY=0;entryDx=0;entryDy=0;endArrow=open;endFill=0;" edge="1" parent="WIyWlLk6GJQsqaUBKTNV-1" source="eVLE40hb4WPYAKezZBtz-60" target="eVLE40hb4WPYAKezZBtz-54">
          <mxGeometry relative="1" as="geometry" />
        </mxCell>
        <mxCell id="eVLE40hb4WPYAKezZBtz-63" style="edgeStyle=orthogonalEdgeStyle;rounded=0;orthogonalLoop=1;jettySize=auto;html=1;exitX=0.5;exitY=0;exitDx=0;exitDy=0;entryX=0.75;entryY=1;entryDx=0;entryDy=0;endArrow=block;endFill=0;dashed=1;dashPattern=8 8;" edge="1" parent="WIyWlLk6GJQsqaUBKTNV-1" source="eVLE40hb4WPYAKezZBtz-60" target="eVLE40hb4WPYAKezZBtz-58">
          <mxGeometry relative="1" as="geometry">
            <mxPoint x="1210" y="-330" as="targetPoint" />
          </mxGeometry>
        </mxCell>
        <mxCell id="eVLE40hb4WPYAKezZBtz-60" value="&lt;p style=&quot;margin:0px;margin-top:4px;text-align:center;&quot;&gt;&lt;b&gt;StandardMealBuilder&lt;br&gt;&lt;/b&gt;&lt;/p&gt;&lt;hr size=&quot;1&quot; style=&quot;border-style:solid;&quot;&gt;&lt;p style=&quot;margin:0px;margin-left:4px;&quot;&gt;- _standardMeal: StandardMeal = new()&lt;/p&gt;&lt;p style=&quot;margin:0px;margin-left:4px;&quot;&gt;- MealItemPrices: Dictionary&amp;lt;Enum, double&amp;gt; = new() {readOnly}&lt;br&gt;&lt;/p&gt;&lt;hr size=&quot;1&quot; style=&quot;border-style:solid;&quot;&gt;&lt;p style=&quot;margin:0px;margin-left:4px;&quot;&gt;+ GetMeal(): StandardMeal&lt;/p&gt;" style="verticalAlign=top;align=left;overflow=fill;html=1;whiteSpace=wrap;" vertex="1" parent="WIyWlLk6GJQsqaUBKTNV-1">
          <mxGeometry x="1170" y="-290" width="220" height="110" as="geometry" />
        </mxCell>
        <mxCell id="eVLE40hb4WPYAKezZBtz-67" style="edgeStyle=orthogonalEdgeStyle;rounded=0;orthogonalLoop=1;jettySize=auto;html=1;entryX=1;entryY=0.5;entryDx=0;entryDy=0;endArrow=open;endFill=0;dashed=1;dashPattern=8 8;" edge="1" parent="WIyWlLk6GJQsqaUBKTNV-1" source="eVLE40hb4WPYAKezZBtz-66" target="eVLE40hb4WPYAKezZBtz-58">
          <mxGeometry relative="1" as="geometry" />
        </mxCell>
        <mxCell id="eVLE40hb4WPYAKezZBtz-66" value="&lt;p style=&quot;margin:0px;margin-top:4px;text-align:center;&quot;&gt;&lt;b&gt;MealDirector&lt;br&gt;&lt;/b&gt;&lt;/p&gt;&lt;hr size=&quot;1&quot; style=&quot;border-style:solid;&quot;&gt;&lt;p style=&quot;margin:0px;margin-left:4px;&quot;&gt;+ CreateDefaultMeal&amp;lt;T, U, W&amp;gt;(standardMealBuilder: IMealBuilder&amp;lt;T, U, W&amp;gt;): void&lt;/p&gt;&lt;p style=&quot;margin:0px;margin-left:4px;&quot;&gt;+ CreateCustomMeal&amp;lt;T, U, W&amp;gt;(mealBuilder: IMealBuilder&amp;lt;T, U, W&amp;gt; , mainCourse: T, firstSideDish:&amp;nbsp;U [0..1]  = null, secondSideDish:&amp;nbsp;W [0..1]  = null): void&lt;br&gt;&lt;/p&gt;" style="verticalAlign=top;align=left;overflow=fill;html=1;whiteSpace=wrap;" vertex="1" parent="WIyWlLk6GJQsqaUBKTNV-1">
          <mxGeometry x="1364" y="-450" width="296" height="130" as="geometry" />
        </mxCell>
        <mxCell id="eVLE40hb4WPYAKezZBtz-79" style="edgeStyle=orthogonalEdgeStyle;rounded=0;orthogonalLoop=1;jettySize=auto;html=1;exitX=0;exitY=0.5;exitDx=0;exitDy=0;entryX=1;entryY=0.5;entryDx=0;entryDy=0;startArrow=open;startFill=0;endArrow=diamondThin;endFill=0;endSize=12;targetPerimeterSpacing=0;startSize=6;" edge="1" parent="WIyWlLk6GJQsqaUBKTNV-1" source="eVLE40hb4WPYAKezZBtz-68" target="eVLE40hb4WPYAKezZBtz-76">
          <mxGeometry relative="1" as="geometry" />
        </mxCell>
        <mxCell id="n8O6fxKU8NbzI1frYbCg-19" style="edgeStyle=orthogonalEdgeStyle;rounded=0;orthogonalLoop=1;jettySize=auto;html=1;exitX=0.5;exitY=0;exitDx=0;exitDy=0;entryX=0.75;entryY=1;entryDx=0;entryDy=0;dashed=1;dashPattern=8 8;endArrow=open;endFill=0;" edge="1" parent="WIyWlLk6GJQsqaUBKTNV-1" source="eVLE40hb4WPYAKezZBtz-68" target="eVLE40hb4WPYAKezZBtz-11">
          <mxGeometry relative="1" as="geometry" />
        </mxCell>
        <mxCell id="eVLE40hb4WPYAKezZBtz-68" value="&lt;p style=&quot;margin:0px;margin-top:4px;text-align:center;&quot;&gt;&lt;i&gt;&amp;lt;&amp;lt;Interface&amp;gt;&amp;gt;&lt;/i&gt;&lt;/p&gt;&lt;p style=&quot;margin:0px;margin-top:4px;text-align:center;&quot;&gt;&lt;b&gt;IFileSavingStrategy&lt;/b&gt;&lt;br&gt;&lt;/p&gt;&lt;hr size=&quot;1&quot; style=&quot;border-style:solid;&quot;&gt;&lt;hr size=&quot;1&quot; style=&quot;border-style:solid;&quot;&gt;&lt;p style=&quot;margin:0px;margin-left:4px;&quot;&gt;+ Save(orders: List&amp;lt;IOrder&amp;gt;, path: string): void&lt;br&gt;&lt;/p&gt;" style="verticalAlign=top;align=left;overflow=fill;html=1;whiteSpace=wrap;" vertex="1" parent="WIyWlLk6GJQsqaUBKTNV-1">
          <mxGeometry x="1080" y="665" width="220" height="110" as="geometry" />
        </mxCell>
        <mxCell id="eVLE40hb4WPYAKezZBtz-74" style="edgeStyle=orthogonalEdgeStyle;rounded=0;orthogonalLoop=1;jettySize=auto;html=1;exitX=0.5;exitY=0;exitDx=0;exitDy=0;entryX=0.25;entryY=1;entryDx=0;entryDy=0;dashed=1;dashPattern=8 8;endArrow=block;endFill=0;" edge="1" parent="WIyWlLk6GJQsqaUBKTNV-1" source="eVLE40hb4WPYAKezZBtz-71" target="eVLE40hb4WPYAKezZBtz-68">
          <mxGeometry relative="1" as="geometry" />
        </mxCell>
        <mxCell id="eVLE40hb4WPYAKezZBtz-71" value="&lt;p style=&quot;margin:0px;margin-top:4px;text-align:center;&quot;&gt;&lt;b&gt;&lt;br&gt;&lt;/b&gt;&lt;/p&gt;&lt;p style=&quot;margin:0px;margin-top:4px;text-align:center;&quot;&gt;&lt;b&gt;TxtFileSavingStrategy&lt;/b&gt;&lt;/p&gt;" style="verticalAlign=top;align=left;overflow=fill;html=1;whiteSpace=wrap;" vertex="1" parent="WIyWlLk6GJQsqaUBKTNV-1">
          <mxGeometry x="1010" y="845" width="160" height="60" as="geometry" />
        </mxCell>
        <mxCell id="eVLE40hb4WPYAKezZBtz-73" style="edgeStyle=orthogonalEdgeStyle;rounded=0;orthogonalLoop=1;jettySize=auto;html=1;exitX=0.5;exitY=0;exitDx=0;exitDy=0;entryX=0.75;entryY=1;entryDx=0;entryDy=0;endArrow=block;endFill=0;dashed=1;dashPattern=8 8;" edge="1" parent="WIyWlLk6GJQsqaUBKTNV-1" source="eVLE40hb4WPYAKezZBtz-72" target="eVLE40hb4WPYAKezZBtz-68">
          <mxGeometry relative="1" as="geometry" />
        </mxCell>
        <mxCell id="eVLE40hb4WPYAKezZBtz-72" value="&lt;p style=&quot;margin:0px;margin-top:4px;text-align:center;&quot;&gt;&lt;b&gt;&lt;br&gt;&lt;/b&gt;&lt;/p&gt;&lt;p style=&quot;margin:0px;margin-top:4px;text-align:center;&quot;&gt;&lt;b&gt;CsvFileSavingStrategy&lt;/b&gt;&lt;/p&gt;" style="verticalAlign=top;align=left;overflow=fill;html=1;whiteSpace=wrap;" vertex="1" parent="WIyWlLk6GJQsqaUBKTNV-1">
          <mxGeometry x="1230" y="845" width="160" height="60" as="geometry" />
        </mxCell>
        <mxCell id="n8O6fxKU8NbzI1frYbCg-14" style="edgeStyle=orthogonalEdgeStyle;rounded=0;orthogonalLoop=1;jettySize=auto;html=1;exitX=0.75;exitY=0;exitDx=0;exitDy=0;entryX=0.25;entryY=1;entryDx=0;entryDy=0;endArrow=open;endFill=0;dashed=1;dashPattern=8 8;" edge="1" parent="WIyWlLk6GJQsqaUBKTNV-1" source="eVLE40hb4WPYAKezZBtz-76" target="eVLE40hb4WPYAKezZBtz-11">
          <mxGeometry relative="1" as="geometry">
            <Array as="points">
              <mxPoint x="935" y="620" />
              <mxPoint x="1052" y="620" />
            </Array>
          </mxGeometry>
        </mxCell>
        <mxCell id="eVLE40hb4WPYAKezZBtz-76" value="&lt;p style=&quot;margin:0px;margin-top:4px;text-align:center;&quot;&gt;&lt;b&gt;OrderHistorySaver&lt;/b&gt;&lt;/p&gt;&lt;hr size=&quot;1&quot; style=&quot;border-style:solid;&quot;&gt;&lt;p style=&quot;margin:0px;margin-left:4px;&quot;&gt;- _fileSavingStrategy: IFileSavingStrategy&lt;br&gt;&lt;/p&gt;&lt;hr size=&quot;1&quot; style=&quot;border-style:solid;&quot;&gt;&lt;p style=&quot;margin:0px;margin-left:4px;&quot;&gt;+ SetStrategy(fileSavingStrategy: IFileSavingStrategy): void&lt;/p&gt;&lt;p style=&quot;margin:0px;margin-left:4px;&quot;&gt;+ SaveOrders(orders: List&amp;lt;IOrder&amp;gt;, filePath: string): void&lt;br&gt;&lt;/p&gt;" style="verticalAlign=top;align=left;overflow=fill;html=1;whiteSpace=wrap;" vertex="1" parent="WIyWlLk6GJQsqaUBKTNV-1">
          <mxGeometry x="770" y="680" width="220" height="155" as="geometry" />
        </mxCell>
        <mxCell id="eVLE40hb4WPYAKezZBtz-82" style="edgeStyle=orthogonalEdgeStyle;rounded=0;orthogonalLoop=1;jettySize=auto;html=1;exitX=0.25;exitY=0;exitDx=0;exitDy=0;startArrow=open;startFill=0;startSize=6;endArrow=diamondThin;endFill=0;endSize=12;entryX=0.75;entryY=0;entryDx=0;entryDy=0;" edge="1" parent="WIyWlLk6GJQsqaUBKTNV-1" source="eVLE40hb4WPYAKezZBtz-80" target="eVLE40hb4WPYAKezZBtz-81">
          <mxGeometry relative="1" as="geometry">
            <mxPoint x="430" as="targetPoint" />
            <Array as="points">
              <mxPoint x="669" y="10" />
              <mxPoint x="500" y="10" />
            </Array>
          </mxGeometry>
        </mxCell>
        <mxCell id="eVLE40hb4WPYAKezZBtz-83" style="edgeStyle=orthogonalEdgeStyle;rounded=0;orthogonalLoop=1;jettySize=auto;html=1;exitX=0.75;exitY=1;exitDx=0;exitDy=0;entryX=0.465;entryY=-0.028;entryDx=0;entryDy=0;endArrow=open;endFill=0;entryPerimeter=0;dashed=1;dashPattern=8 8;" edge="1" parent="WIyWlLk6GJQsqaUBKTNV-1" source="eVLE40hb4WPYAKezZBtz-80" target="eVLE40hb4WPYAKezZBtz-11">
          <mxGeometry relative="1" as="geometry">
            <Array as="points">
              <mxPoint x="775" y="260" />
              <mxPoint x="1098" y="260" />
            </Array>
          </mxGeometry>
        </mxCell>
        <mxCell id="n8O6fxKU8NbzI1frYbCg-46" style="edgeStyle=orthogonalEdgeStyle;rounded=0;orthogonalLoop=1;jettySize=auto;html=1;exitX=0.5;exitY=1;exitDx=0;exitDy=0;endArrow=open;endFill=0;dashed=1;dashPattern=8 8;entryX=0.999;entryY=0.318;entryDx=0;entryDy=0;entryPerimeter=0;" edge="1" parent="WIyWlLk6GJQsqaUBKTNV-1" source="eVLE40hb4WPYAKezZBtz-80" target="cTSybKkuy7gmy8g6b1z0-0">
          <mxGeometry relative="1" as="geometry">
            <mxPoint x="600" y="260" as="targetPoint" />
            <Array as="points">
              <mxPoint x="720" y="180" />
              <mxPoint x="720" y="259" />
            </Array>
          </mxGeometry>
        </mxCell>
        <mxCell id="eVLE40hb4WPYAKezZBtz-80" value="&lt;p style=&quot;margin:0px;margin-top:4px;text-align:center;&quot;&gt;&lt;i&gt;&amp;lt;&amp;lt;Interface&amp;gt;&amp;gt;&lt;/i&gt;&lt;/p&gt;&lt;p style=&quot;margin:0px;margin-top:4px;text-align:center;&quot;&gt;&lt;b&gt;IOrderHandler&lt;/b&gt;&lt;br&gt;&lt;/p&gt;&lt;hr size=&quot;1&quot; style=&quot;border-style:solid;&quot;&gt;&lt;p style=&quot;margin:0px;margin-left:4px;&quot;&gt;+ SetNext(order: IOrderHandler [0..1]): IOrderHandler [0...1]&lt;/p&gt;&lt;p style=&quot;margin:0px;margin-left:4px;&quot;&gt;+ HandleAsync(order: IOrder, restaurant: Restaurant): Task&amp;lt;IOrder [0..1]&amp;gt;&lt;br&gt;&lt;/p&gt;" style="verticalAlign=top;align=left;overflow=fill;html=1;whiteSpace=wrap;" vertex="1" parent="WIyWlLk6GJQsqaUBKTNV-1">
          <mxGeometry x="617" y="50" width="210" height="130" as="geometry" />
        </mxCell>
        <mxCell id="eVLE40hb4WPYAKezZBtz-92" style="edgeStyle=orthogonalEdgeStyle;rounded=0;orthogonalLoop=1;jettySize=auto;html=1;exitX=1;exitY=0.5;exitDx=0;exitDy=0;entryX=0;entryY=0.5;entryDx=0;entryDy=0;endArrow=block;endFill=0;dashed=1;dashPattern=8 8;" edge="1" parent="WIyWlLk6GJQsqaUBKTNV-1" source="eVLE40hb4WPYAKezZBtz-81" target="eVLE40hb4WPYAKezZBtz-80">
          <mxGeometry relative="1" as="geometry" />
        </mxCell>
        <mxCell id="eVLE40hb4WPYAKezZBtz-81" value="&lt;p style=&quot;margin:0px;margin-top:4px;text-align:center;&quot;&gt;&lt;b&gt;OrderHandler {abstract}&lt;/b&gt;&lt;br&gt;&lt;/p&gt;&lt;hr size=&quot;1&quot; style=&quot;border-style:solid;&quot;&gt;&lt;p style=&quot;margin:0px;margin-left:4px;&quot;&gt;# _lock: object = new() {readOnly}&lt;/p&gt;&lt;p style=&quot;margin:0px;margin-left:4px;&quot;&gt;- _nextHandler: IOrderHanlder [0..1]&lt;br&gt;&lt;/p&gt;" style="verticalAlign=top;align=left;overflow=fill;html=1;whiteSpace=wrap;" vertex="1" parent="WIyWlLk6GJQsqaUBKTNV-1">
          <mxGeometry x="350" y="40" width="200" height="90" as="geometry" />
        </mxCell>
        <mxCell id="eVLE40hb4WPYAKezZBtz-84" value="&lt;p style=&quot;margin:0px;margin-top:4px;text-align:center;&quot;&gt;&lt;b&gt;NewOrderHandler&lt;/b&gt;&lt;br&gt;&lt;/p&gt;&lt;hr size=&quot;1&quot; style=&quot;border-style:solid;&quot;&gt;&lt;p style=&quot;margin:0px;margin-left:4px;&quot;&gt;+&amp;nbsp;HandleAsync(order IOrder, restaurant: Restaurant): Task&amp;lt;IOrder [0..1]&amp;gt;&lt;br&gt;&lt;/p&gt;" style="verticalAlign=top;align=left;overflow=fill;html=1;whiteSpace=wrap;" vertex="1" parent="WIyWlLk6GJQsqaUBKTNV-1">
          <mxGeometry x="-30" y="235" width="160" height="85" as="geometry" />
        </mxCell>
        <mxCell id="eVLE40hb4WPYAKezZBtz-85" value="&lt;p style=&quot;margin:0px;margin-top:4px;text-align:center;&quot;&gt;&lt;b&gt;InKitchenOrderHandler&lt;/b&gt;&lt;br&gt;&lt;/p&gt;&lt;hr size=&quot;1&quot; style=&quot;border-style:solid;&quot;&gt;&lt;p style=&quot;margin:0px;margin-left:4px;&quot;&gt;+&amp;nbsp;HandleAsync(order IOrder, restaurant: Restaurant): Task&amp;lt;IOrder [0..1]&amp;gt;&lt;/p&gt;" style="verticalAlign=top;align=left;overflow=fill;html=1;whiteSpace=wrap;" vertex="1" parent="WIyWlLk6GJQsqaUBKTNV-1">
          <mxGeometry x="-30" y="115" width="160" height="90" as="geometry" />
        </mxCell>
        <mxCell id="eVLE40hb4WPYAKezZBtz-86" value="&lt;p style=&quot;margin:0px;margin-top:4px;text-align:center;&quot;&gt;&lt;b&gt;InKitchenOrderHandler&lt;/b&gt;&lt;br&gt;&lt;/p&gt;&lt;hr size=&quot;1&quot; style=&quot;border-style:solid;&quot;&gt;&lt;p style=&quot;margin:0px;margin-left:4px;&quot;&gt;+ HandleAsync(order IOrder, restaurant: Restaurant): Task&amp;lt;IOrder [0..1]&amp;gt;&lt;/p&gt;" style="verticalAlign=top;align=left;overflow=fill;html=1;whiteSpace=wrap;" vertex="1" parent="WIyWlLk6GJQsqaUBKTNV-1">
          <mxGeometry x="-30" y="-5" width="160" height="90" as="geometry" />
        </mxCell>
        <mxCell id="eVLE40hb4WPYAKezZBtz-87" value="&lt;p style=&quot;margin:0px;margin-top:4px;text-align:center;&quot;&gt;&lt;b&gt;PreparedOrderHandler&lt;/b&gt;&lt;br&gt;&lt;/p&gt;&lt;hr size=&quot;1&quot; style=&quot;border-style:solid;&quot;&gt;&lt;p style=&quot;margin:0px;margin-left:4px;&quot;&gt;+&amp;nbsp;HandleAsync(order IOrder, restaurant: Restaurant): Task&amp;lt;IOrder [0..1]&amp;gt;&lt;/p&gt;" style="verticalAlign=top;align=left;overflow=fill;html=1;whiteSpace=wrap;" vertex="1" parent="WIyWlLk6GJQsqaUBKTNV-1">
          <mxGeometry x="-30" y="-125" width="160" height="90" as="geometry" />
        </mxCell>
        <mxCell id="eVLE40hb4WPYAKezZBtz-91" style="edgeStyle=orthogonalEdgeStyle;rounded=0;orthogonalLoop=1;jettySize=auto;html=1;entryX=0;entryY=0.5;entryDx=0;entryDy=0;endArrow=block;endFill=0;exitX=0.562;exitY=-0.182;exitDx=0;exitDy=0;exitPerimeter=0;" edge="1" parent="WIyWlLk6GJQsqaUBKTNV-1" source="eVLE40hb4WPYAKezZBtz-90" target="eVLE40hb4WPYAKezZBtz-81">
          <mxGeometry relative="1" as="geometry">
            <mxPoint x="280" y="85" as="targetPoint" />
          </mxGeometry>
        </mxCell>
        <mxCell id="eVLE40hb4WPYAKezZBtz-90" value="" style="shape=waypoint;sketch=0;fillStyle=solid;size=6;pointerEvents=1;points=[];fillColor=none;resizable=0;rotatable=0;perimeter=centerPerimeter;snapToPoint=1;strokeWidth=1;strokeColor=none;" vertex="1" parent="WIyWlLk6GJQsqaUBKTNV-1">
          <mxGeometry x="180" y="75" width="20" height="20" as="geometry" />
        </mxCell>
        <mxCell id="eVLE40hb4WPYAKezZBtz-93" style="edgeStyle=orthogonalEdgeStyle;rounded=0;orthogonalLoop=1;jettySize=auto;html=1;exitX=1;exitY=0.5;exitDx=0;exitDy=0;entryX=0.579;entryY=0.906;entryDx=0;entryDy=0;entryPerimeter=0;endArrow=none;endFill=0;" edge="1" parent="WIyWlLk6GJQsqaUBKTNV-1" source="eVLE40hb4WPYAKezZBtz-87" target="eVLE40hb4WPYAKezZBtz-90">
          <mxGeometry relative="1" as="geometry">
            <Array as="points">
              <mxPoint x="190" y="-80" />
              <mxPoint x="190" y="85" />
            </Array>
          </mxGeometry>
        </mxCell>
        <mxCell id="eVLE40hb4WPYAKezZBtz-94" style="edgeStyle=orthogonalEdgeStyle;rounded=0;orthogonalLoop=1;jettySize=auto;html=1;exitX=1;exitY=0.5;exitDx=0;exitDy=0;entryX=0.756;entryY=0.788;entryDx=0;entryDy=0;entryPerimeter=0;endArrow=none;endFill=0;" edge="1" parent="WIyWlLk6GJQsqaUBKTNV-1" source="eVLE40hb4WPYAKezZBtz-86" target="eVLE40hb4WPYAKezZBtz-90">
          <mxGeometry relative="1" as="geometry">
            <Array as="points">
              <mxPoint x="190" y="40" />
              <mxPoint x="190" y="85" />
            </Array>
          </mxGeometry>
        </mxCell>
        <mxCell id="eVLE40hb4WPYAKezZBtz-95" style="edgeStyle=orthogonalEdgeStyle;rounded=0;orthogonalLoop=1;jettySize=auto;html=1;exitX=1;exitY=0.5;exitDx=0;exitDy=0;entryX=0.168;entryY=0.553;entryDx=0;entryDy=0;entryPerimeter=0;endArrow=none;endFill=0;" edge="1" parent="WIyWlLk6GJQsqaUBKTNV-1" source="eVLE40hb4WPYAKezZBtz-85" target="eVLE40hb4WPYAKezZBtz-90">
          <mxGeometry relative="1" as="geometry">
            <Array as="points">
              <mxPoint x="190" y="160" />
              <mxPoint x="190" y="85" />
            </Array>
          </mxGeometry>
        </mxCell>
        <mxCell id="eVLE40hb4WPYAKezZBtz-96" style="edgeStyle=orthogonalEdgeStyle;rounded=0;orthogonalLoop=1;jettySize=auto;html=1;exitX=1;exitY=0.5;exitDx=0;exitDy=0;entryX=0.562;entryY=-0.182;entryDx=0;entryDy=0;entryPerimeter=0;endArrow=none;endFill=0;" edge="1" parent="WIyWlLk6GJQsqaUBKTNV-1" source="eVLE40hb4WPYAKezZBtz-84" target="eVLE40hb4WPYAKezZBtz-90">
          <mxGeometry relative="1" as="geometry">
            <Array as="points">
              <mxPoint x="190" y="280" />
              <mxPoint x="190" y="85" />
            </Array>
          </mxGeometry>
        </mxCell>
        <mxCell id="eVLE40hb4WPYAKezZBtz-101" style="edgeStyle=orthogonalEdgeStyle;rounded=0;orthogonalLoop=1;jettySize=auto;html=1;exitX=0;exitY=0.75;exitDx=0;exitDy=0;entryX=0;entryY=0.25;entryDx=0;entryDy=0;endArrow=open;endFill=0;" edge="1" parent="WIyWlLk6GJQsqaUBKTNV-1" source="cTSybKkuy7gmy8g6b1z0-0" target="cTSybKkuy7gmy8g6b1z0-0">
          <mxGeometry relative="1" as="geometry">
            <Array as="points">
              <mxPoint x="260" y="350" />
              <mxPoint x="220" y="350" />
              <mxPoint x="220" y="240" />
            </Array>
          </mxGeometry>
        </mxCell>
        <mxCell id="n8O6fxKU8NbzI1frYbCg-0" value="&lt;p style=&quot;margin:0px;margin-top:4px;text-align:center;&quot;&gt;&amp;lt;&amp;lt;enumeration&amp;gt;&amp;gt;&lt;b&gt;&lt;br&gt;&lt;/b&gt;&lt;/p&gt;&lt;p style=&quot;margin:0px;margin-top:4px;text-align:center;&quot;&gt;&lt;b&gt;BurgerMainCourseOption&lt;/b&gt;&lt;/p&gt;&lt;hr size=&quot;1&quot; style=&quot;border-style:solid;&quot;&gt;&lt;div&gt;&amp;nbsp;Standard&lt;/div&gt;&lt;div&gt;&amp;nbsp;Spicy&lt;br&gt;&lt;/div&gt;" style="verticalAlign=top;align=left;overflow=fill;html=1;whiteSpace=wrap;" vertex="1" parent="WIyWlLk6GJQsqaUBKTNV-1">
          <mxGeometry x="570" y="-330" width="190" height="85" as="geometry" />
        </mxCell>
        <mxCell id="n8O6fxKU8NbzI1frYbCg-1" value="&lt;p style=&quot;margin:0px;margin-top:4px;text-align:center;&quot;&gt;&amp;lt;&amp;lt;enumeration&amp;gt;&amp;gt;&lt;b&gt;&lt;br&gt;&lt;/b&gt;&lt;/p&gt;&lt;p style=&quot;margin:0px;margin-top:4px;text-align:center;&quot;&gt;&lt;b&gt;BurgerFirstSideDishOption&lt;/b&gt;&lt;/p&gt;&lt;hr size=&quot;1&quot; style=&quot;border-style:solid;&quot;&gt;&lt;div&gt;&amp;nbsp;Fries&lt;/div&gt;&lt;div&gt;&amp;nbsp;Curly_Fries&lt;/div&gt;&lt;div&gt;&amp;nbsp;Corn&lt;br&gt;&lt;/div&gt;" style="verticalAlign=top;align=left;overflow=fill;html=1;whiteSpace=wrap;" vertex="1" parent="WIyWlLk6GJQsqaUBKTNV-1">
          <mxGeometry x="570" y="-222.5" width="190" height="105" as="geometry" />
        </mxCell>
        <mxCell id="n8O6fxKU8NbzI1frYbCg-2" value="&lt;p style=&quot;margin:0px;margin-top:4px;text-align:center;&quot;&gt;&amp;lt;&amp;lt;enumeration&amp;gt;&amp;gt;&lt;b&gt;&lt;br&gt;&lt;/b&gt;&lt;/p&gt;&lt;p style=&quot;margin:0px;margin-top:4px;text-align:center;&quot;&gt;&lt;b&gt;BurgerSecondSideDishOption &lt;br&gt;&lt;/b&gt;&lt;/p&gt;&lt;hr size=&quot;1&quot; style=&quot;border-style:solid;&quot;&gt;&lt;div&gt;&amp;nbsp;Salad&lt;/div&gt;&lt;div&gt;&amp;nbsp;Coleslaw&lt;br&gt;&lt;/div&gt;" style="verticalAlign=top;align=left;overflow=fill;html=1;whiteSpace=wrap;" vertex="1" parent="WIyWlLk6GJQsqaUBKTNV-1">
          <mxGeometry x="570" y="-100" width="190" height="90" as="geometry" />
        </mxCell>
        <mxCell id="n8O6fxKU8NbzI1frYbCg-28" value="" style="shape=waypoint;sketch=0;fillStyle=solid;size=6;pointerEvents=1;points=[];fillColor=none;resizable=0;rotatable=0;perimeter=centerPerimeter;snapToPoint=1;strokeWidth=1;strokeColor=none;" vertex="1" parent="WIyWlLk6GJQsqaUBKTNV-1">
          <mxGeometry x="827" y="-180" width="20" height="20" as="geometry" />
        </mxCell>
        <mxCell id="n8O6fxKU8NbzI1frYbCg-29" style="edgeStyle=orthogonalEdgeStyle;rounded=0;orthogonalLoop=1;jettySize=auto;html=1;entryX=0.505;entryY=0.974;entryDx=0;entryDy=0;entryPerimeter=0;endArrow=none;endFill=0;dashed=1;dashPattern=8 8;" edge="1" parent="WIyWlLk6GJQsqaUBKTNV-1" source="eVLE40hb4WPYAKezZBtz-53" target="n8O6fxKU8NbzI1frYbCg-28">
          <mxGeometry relative="1" as="geometry" />
        </mxCell>
        <mxCell id="n8O6fxKU8NbzI1frYbCg-30" style="edgeStyle=orthogonalEdgeStyle;rounded=0;orthogonalLoop=1;jettySize=auto;html=1;entryX=1.032;entryY=0.711;entryDx=0;entryDy=0;entryPerimeter=0;endArrow=none;endFill=0;dashed=1;dashPattern=8 8;" edge="1" parent="WIyWlLk6GJQsqaUBKTNV-1" source="eVLE40hb4WPYAKezZBtz-59" target="n8O6fxKU8NbzI1frYbCg-28">
          <mxGeometry relative="1" as="geometry">
            <Array as="points">
              <mxPoint x="837" y="-240" />
            </Array>
          </mxGeometry>
        </mxCell>
        <mxCell id="n8O6fxKU8NbzI1frYbCg-32" style="edgeStyle=orthogonalEdgeStyle;rounded=0;orthogonalLoop=1;jettySize=auto;html=1;exitX=1;exitY=0.5;exitDx=0;exitDy=0;entryX=0.032;entryY=0.605;entryDx=0;entryDy=0;entryPerimeter=0;endArrow=none;endFill=0;startArrow=open;startFill=0;dashed=1;dashPattern=8 8;" edge="1" parent="WIyWlLk6GJQsqaUBKTNV-1" source="n8O6fxKU8NbzI1frYbCg-0" target="n8O6fxKU8NbzI1frYbCg-28">
          <mxGeometry relative="1" as="geometry">
            <Array as="points">
              <mxPoint x="800" y="-287" />
              <mxPoint x="800" y="-170" />
            </Array>
          </mxGeometry>
        </mxCell>
        <mxCell id="n8O6fxKU8NbzI1frYbCg-33" style="edgeStyle=orthogonalEdgeStyle;rounded=0;orthogonalLoop=1;jettySize=auto;html=1;exitX=1;exitY=0.5;exitDx=0;exitDy=0;endArrow=none;endFill=0;startArrow=open;startFill=0;dashed=1;dashPattern=8 8;" edge="1" parent="WIyWlLk6GJQsqaUBKTNV-1" source="n8O6fxKU8NbzI1frYbCg-1">
          <mxGeometry relative="1" as="geometry">
            <mxPoint x="837" y="-170" as="targetPoint" />
            <Array as="points">
              <mxPoint x="837" y="-170" />
            </Array>
          </mxGeometry>
        </mxCell>
        <mxCell id="n8O6fxKU8NbzI1frYbCg-34" style="edgeStyle=orthogonalEdgeStyle;rounded=0;orthogonalLoop=1;jettySize=auto;html=1;exitX=1;exitY=0.5;exitDx=0;exitDy=0;entryX=0.189;entryY=1.184;entryDx=0;entryDy=0;entryPerimeter=0;startArrow=open;startFill=0;endArrow=none;endFill=0;dashed=1;dashPattern=8 8;" edge="1" parent="WIyWlLk6GJQsqaUBKTNV-1" source="n8O6fxKU8NbzI1frYbCg-2" target="n8O6fxKU8NbzI1frYbCg-28">
          <mxGeometry relative="1" as="geometry">
            <Array as="points">
              <mxPoint x="800" y="-55" />
              <mxPoint x="800" y="-170" />
            </Array>
          </mxGeometry>
        </mxCell>
        <mxCell id="n8O6fxKU8NbzI1frYbCg-35" value="&lt;p style=&quot;margin:0px;margin-top:4px;text-align:center;&quot;&gt;&amp;lt;&amp;lt;enumeration&amp;gt;&amp;gt;&lt;b&gt;&lt;br&gt;&lt;/b&gt;&lt;/p&gt;&lt;p style=&quot;margin:0px;margin-top:4px;text-align:center;&quot;&gt;&lt;b&gt;StandardMainCourseOption&lt;/b&gt;&lt;/p&gt;&lt;hr size=&quot;1&quot; style=&quot;border-style:solid;&quot;&gt;&lt;div&gt;&amp;nbsp;Porkchop&lt;/div&gt;&lt;div&gt;&amp;nbsp;Chicken&lt;/div&gt;&lt;div&gt;&amp;nbsp;Beef_Welington&lt;br&gt;&lt;/div&gt;" style="verticalAlign=top;align=left;overflow=fill;html=1;whiteSpace=wrap;" vertex="1" parent="WIyWlLk6GJQsqaUBKTNV-1">
          <mxGeometry x="1560" y="-290" width="190" height="100" as="geometry" />
        </mxCell>
        <mxCell id="n8O6fxKU8NbzI1frYbCg-36" value="&lt;p style=&quot;margin:0px;margin-top:4px;text-align:center;&quot;&gt;&amp;lt;&amp;lt;enumeration&amp;gt;&amp;gt;&lt;b&gt;&lt;br&gt;&lt;/b&gt;&lt;/p&gt;&lt;p style=&quot;margin:0px;margin-top:4px;text-align:center;&quot;&gt;&lt;b&gt;StandardFirstSideDishOption&lt;/b&gt;&lt;/p&gt;&lt;hr size=&quot;1&quot; style=&quot;border-style:solid;&quot;&gt;&lt;div&gt;&amp;nbsp;Potatoes&lt;/div&gt;&lt;div&gt;&amp;nbsp;Baked_Potatoes&lt;br&gt;&lt;/div&gt;" style="verticalAlign=top;align=left;overflow=fill;html=1;whiteSpace=wrap;" vertex="1" parent="WIyWlLk6GJQsqaUBKTNV-1">
          <mxGeometry x="1560" y="-180" width="190" height="90" as="geometry" />
        </mxCell>
        <mxCell id="n8O6fxKU8NbzI1frYbCg-37" value="&lt;p style=&quot;margin:0px;margin-top:4px;text-align:center;&quot;&gt;&amp;lt;&amp;lt;enumeration&amp;gt;&amp;gt;&lt;b&gt;&lt;br&gt;&lt;/b&gt;&lt;/p&gt;&lt;p style=&quot;margin:0px;margin-top:4px;text-align:center;&quot;&gt;&lt;b&gt;StandardSecondSideDishOption&lt;br&gt;&lt;/b&gt;&lt;/p&gt;&lt;hr size=&quot;1&quot; style=&quot;border-style:solid;&quot;&gt;&lt;div&gt;&amp;nbsp;Salad&lt;/div&gt;&lt;div&gt;&amp;nbsp;Asparagus&lt;br&gt;&lt;/div&gt;" style="verticalAlign=top;align=left;overflow=fill;html=1;whiteSpace=wrap;" vertex="1" parent="WIyWlLk6GJQsqaUBKTNV-1">
          <mxGeometry x="1560" y="-70" width="190" height="90" as="geometry" />
        </mxCell>
        <mxCell id="n8O6fxKU8NbzI1frYbCg-38" value="" style="shape=waypoint;sketch=0;fillStyle=solid;size=6;pointerEvents=1;points=[];fillColor=none;resizable=0;rotatable=0;perimeter=centerPerimeter;snapToPoint=1;strokeWidth=1;strokeColor=none;" vertex="1" parent="WIyWlLk6GJQsqaUBKTNV-1">
          <mxGeometry x="1500" y="-145" width="20" height="20" as="geometry" />
        </mxCell>
        <mxCell id="n8O6fxKU8NbzI1frYbCg-39" style="edgeStyle=orthogonalEdgeStyle;rounded=0;orthogonalLoop=1;jettySize=auto;html=1;exitX=0;exitY=0.5;exitDx=0;exitDy=0;entryX=0.032;entryY=0.605;entryDx=0;entryDy=0;entryPerimeter=0;endArrow=none;endFill=0;startArrow=open;startFill=0;dashed=1;dashPattern=8 8;" edge="1" parent="WIyWlLk6GJQsqaUBKTNV-1" source="n8O6fxKU8NbzI1frYbCg-35" target="n8O6fxKU8NbzI1frYbCg-38">
          <mxGeometry relative="1" as="geometry">
            <Array as="points">
              <mxPoint x="1510" y="-240" />
            </Array>
            <mxPoint x="1433" y="-215" as="sourcePoint" />
          </mxGeometry>
        </mxCell>
        <mxCell id="n8O6fxKU8NbzI1frYbCg-40" style="edgeStyle=orthogonalEdgeStyle;rounded=0;orthogonalLoop=1;jettySize=auto;html=1;exitX=0;exitY=0.5;exitDx=0;exitDy=0;endArrow=none;endFill=0;startArrow=open;startFill=0;dashed=1;dashPattern=8 8;" edge="1" parent="WIyWlLk6GJQsqaUBKTNV-1" source="n8O6fxKU8NbzI1frYbCg-36">
          <mxGeometry relative="1" as="geometry">
            <mxPoint x="1510" y="-135" as="targetPoint" />
            <Array as="points">
              <mxPoint x="1540" y="-135" />
              <mxPoint x="1540" y="-135" />
            </Array>
            <mxPoint x="1433" y="-135" as="sourcePoint" />
          </mxGeometry>
        </mxCell>
        <mxCell id="n8O6fxKU8NbzI1frYbCg-41" style="edgeStyle=orthogonalEdgeStyle;rounded=0;orthogonalLoop=1;jettySize=auto;html=1;exitX=0;exitY=0.5;exitDx=0;exitDy=0;entryX=0.189;entryY=1.184;entryDx=0;entryDy=0;entryPerimeter=0;startArrow=open;startFill=0;endArrow=none;endFill=0;dashed=1;dashPattern=8 8;" edge="1" parent="WIyWlLk6GJQsqaUBKTNV-1" source="n8O6fxKU8NbzI1frYbCg-37" target="n8O6fxKU8NbzI1frYbCg-38">
          <mxGeometry relative="1" as="geometry">
            <Array as="points">
              <mxPoint x="1510" y="-25" />
            </Array>
            <mxPoint x="1433" y="-55" as="sourcePoint" />
          </mxGeometry>
        </mxCell>
        <mxCell id="n8O6fxKU8NbzI1frYbCg-42" style="edgeStyle=orthogonalEdgeStyle;rounded=0;orthogonalLoop=1;jettySize=auto;html=1;exitX=1;exitY=0.5;exitDx=0;exitDy=0;entryX=1.013;entryY=0.171;entryDx=0;entryDy=0;entryPerimeter=0;endArrow=none;endFill=0;dashed=1;dashPattern=8 8;" edge="1" parent="WIyWlLk6GJQsqaUBKTNV-1" source="eVLE40hb4WPYAKezZBtz-54" target="n8O6fxKU8NbzI1frYbCg-38">
          <mxGeometry relative="1" as="geometry">
            <Array as="points">
              <mxPoint x="1470" y="-75" />
              <mxPoint x="1470" y="-135" />
            </Array>
          </mxGeometry>
        </mxCell>
        <mxCell id="n8O6fxKU8NbzI1frYbCg-44" style="edgeStyle=orthogonalEdgeStyle;rounded=0;orthogonalLoop=1;jettySize=auto;html=1;exitX=1;exitY=0.5;exitDx=0;exitDy=0;entryX=0.224;entryY=0.171;entryDx=0;entryDy=0;entryPerimeter=0;endArrow=none;endFill=0;dashed=1;dashPattern=8 8;" edge="1" parent="WIyWlLk6GJQsqaUBKTNV-1" source="eVLE40hb4WPYAKezZBtz-60" target="n8O6fxKU8NbzI1frYbCg-38">
          <mxGeometry relative="1" as="geometry">
            <Array as="points">
              <mxPoint x="1390" y="-240" />
              <mxPoint x="1470" y="-240" />
              <mxPoint x="1470" y="-135" />
            </Array>
          </mxGeometry>
        </mxCell>
      </root>
    </mxGraphModel>
  </diagram>
</mxfile>
